<?xml version="1.0" encoding="iso-8859-1"?>
<!-- Generator: Adobe Illustrator 19.0.0, SVG Export Plug-In . SVG Version: 6.00 Build 0)  -->
<svg version="1.1" id="Layer_1" xmlns="http://www.w3.org/2000/svg" xmlns:xlink="http://www.w3.org/1999/xlink" x="0px" y="0px"
	 viewBox="0 0 481.882 481.882" style="enable-background:new 0 0 481.882 481.882;" xml:space="preserve">
<path style="fill:#FFFFFF;" d="M444.303,336.12c-5.715,6.468-14.012,10.232-22.656,10.232H75.294
	c-24.952,0-45.176,20.239-45.176,45.176c0,24.952,20.224,45.176,45.176,45.176h346.353c16.625,0,30.118-13.478,30.118-30.118
	c0-73.961,0-56.425,0-90.353C451.765,323.464,449.114,330.541,444.303,336.12z"/>
<g>
	<path style="fill:#CFD3D4;" d="M421.647,386.65H75.294c-2.086,0-3.765,1.694-3.765,3.765c0,2.086,1.679,3.765,3.765,3.765
		l346.97-0.045c12.175-2.033,22.355-6.807,29.5-13.38v-11.814C446.389,377.653,435.576,384.301,421.647,386.65z"/>
	<path style="fill:#CFD3D4;" d="M421.647,414.118H75.294c-2.086,0-3.765,1.694-3.765,3.765s1.679,3.765,3.765,3.765l346.97-0.053
		c12.175-2.04,22.355-6.799,29.5-13.372v-11.806C446.389,405.12,435.576,411.768,421.647,414.118z"/>
	<path style="fill:#CFD3D4;" d="M421.647,361.412H75.294c-2.078,0-3.765,1.694-3.765,3.765c0,2.071,1.679,3.765,3.765,3.765
		l346.97-0.053c11.776-1.965,22.159-7.108,29.5-13.937v-11.784C446.532,351.405,436.021,358.98,421.647,361.412z"/>
</g>
<path style="fill:#212121;" d="M75.294,346.353h346.353c8.659,0,16.926-3.735,22.641-10.263c5.715-6.513,8.35-15.187,7.213-23.793
	L409.562,25.796C407.868,11.113,394.978,0,379.625,0H102.249C86.904,0,74.014,11.113,72.312,25.803L31.277,381.493
	C35.84,361.382,53.798,346.353,75.294,346.353z"/>
<path style="fill:#5B5C5F;" d="M320.008,0H102.249C86.904,0,74.014,11.113,72.312,25.803L43.369,276.638L320.008,0z"/>
<polygon style="fill:#EF5350;" points="361.412,0 320.008,0 350.125,346.353 399.059,346.353 "/>
<rect x="350.118" y="346.353" style="fill:#D32F2F;" width="48.934" height="90.353"/>
<polygon style="fill:#EF5350;" points="82.824,391.529 82.824,481.882 120.471,451.765 158.118,481.882 158.118,391.529 "/>
<g>
</g>
<g>
</g>
<g>
</g>
<g>
</g>
<g>
</g>
<g>
</g>
<g>
</g>
<g>
</g>
<g>
</g>
<g>
</g>
<g>
</g>
<g>
</g>
<g>
</g>
<g>
</g>
<g>
</g>
</svg>
